<svg width="16" height="16" viewBox="0 0 16 16" fill="none" xmlns="http://www.w3.org/2000/svg">
<path fill-rule="evenodd" clip-rule="evenodd" d="M9.90596 8L15.6238 2.28213C16.1254 1.78056 16.1254 0.877746 15.6238 0.376179C15.1223 -0.125389 14.2194 -0.125389 13.7179 0.376179L7.99999 6.09404L2.28213 0.376179C1.78056 -0.125389 0.877746 -0.125389 0.376179 0.376179C-0.125389 0.877746 -0.125389 1.78056 0.376179 2.28213L6.09404 8L0.376179 13.7179C-0.125389 14.2194 -0.125389 15.1223 0.376179 15.6238C0.877746 16.1254 1.78056 16.1254 2.28213 15.6238L7.99999 9.90596L13.7179 15.6238C14.2194 16.1254 15.1223 16.1254 15.6238 15.6238C16.1254 15.1223 16.1254 14.2194 15.6238 13.7179L9.90596 8Z" fill="#9E9E9E"/>
</svg>
